<?xml version="1.0" encoding="utf-8"?>
<svg xmlns="http://www.w3.org/2000/svg" xmlns:xlink="http://www.w3.org/1999/xlink"
     style="margin: auto; background: transparent; display: block; shape-rendering: auto;" width="201px"
     height="201px" viewBox="0 0 100 100" preserveAspectRatio="xMidYMid">
    <g transform="translate(50 50)">
        <g>
            <animateTransform attributeName="transform" type="rotate" values="0;24" keyTimes="0;1"
                              dur="0.5952380952380952s" repeatCount="indefinite"></animateTransform>
            <path d="M34.64101615137754 -5 L46.64101615137754 -5 L46.64101615137754 5 L34.64101615137754 5 A35 35 0 0 1 33.679826168593934 9.522043333932874 L33.679826168593934 9.522043333932874 L44.642371660305145 14.402883050842476 L40.575005229547145 23.538337627268483 L29.61245973783593 18.65749791035888 A35 35 0 0 1 26.895088269645232 22.39763887038077 L26.895088269645232 22.39763887038077 L34.92465554595153 31.315376776109503 L27.493207291177583 38.00668283969808 L19.463640014871288 29.08894493396935 A35 35 0 0 1 15.459945274668469 31.400479169978542 L15.459945274668469 31.400479169978542 L19.168149207167836 42.81315736552038 L9.6575840442163 45.903327309269855 L5.949380111716931 34.49064911372801 A35 35 0 0 1 1.3516372925079136 34.97389135668923 L1.3516372925079136 34.97389135668923 L0.09729573329607355 46.90815410110851 L-9.84792322038666 45.86286946843198 L-8.59358166117482 33.9286067240127 A35 35 0 0 1 -12.990381056766573 32.50000000000001 L-12.990381056766573 32.50000000000001 L-18.99038105676657 42.89230484541327 L-27.65063509461096 37.89230484541327 L-21.650635094610962 27.500000000000004 A35 35 0 0 1 -25.086244507419103 24.40656339007983 L-25.086244507419103 24.40656339007983 L-34.79444843991847 31.459986417589505 L-40.6723009628432 23.36981647384003 L-30.964097030343837 16.316393446330352 A35 35 0 0 1 -32.844468381362155 12.093010243347258 L-32.844468381362155 12.093010243347258 L-44.582239590167816 14.587950533160376 L-46.66135649834541 4.806474525822318 L-34.92358528953975 2.311534236009201 A35 35 0 0 1 -34.92358528953975 -2.3115342360091775 L-34.92358528953975 -2.3115342360091775 L-46.66135649834542 -4.806474525822287 L-44.58223959016783 -14.587950533160345 L-32.84446838136216 -12.093010243347235 A35 35 0 0 1 -30.96409703034384 -16.316393446330345 L-30.96409703034384 -16.316393446330345 L-40.67230096284321 -23.36981647384002 L-34.794448439918476 -31.459986417589498 L-25.086244507419106 -24.40656339007982 A35 35 0 0 1 -21.650635094610966 -27.5 L-21.650635094610966 -27.5 L-27.65063509461097 -37.892304845413264 L-18.990381056766612 -42.89230484541326 L-12.990381056766608 -32.49999999999999 A35 35 0 0 1 -8.593581661174836 -33.928606724012695 L-8.593581661174836 -33.928606724012695 L-9.847923220386686 -45.862869468431974 L0.0972957332960156 -46.908154101108515 L1.3516372925078664 -34.973891356689236 A35 35 0 0 1 5.9493801117169385 -34.49064911372801 L5.9493801117169385 -34.49064911372801 L9.657584044216307 -45.903327309269855 L19.168149207167815 -42.8131573655204 L15.459945274668447 -31.40047916997855 A35 35 0 0 1 19.463640014871284 -29.088944933969355 L19.463640014871284 -29.088944933969355 L27.493207291177576 -38.00668283969809 L34.9246555459515 -31.31537677610953 L26.895088269645207 -22.397638870380796 A35 35 0 0 1 29.612459737835923 -18.657497910358895 L29.612459737835923 -18.657497910358895 L40.57500522954713 -23.538337627268504 L44.64237166030513 -14.402883050842528 L33.67982616859392 -9.522043333932917 A35 35 0 0 1 34.64101615137754 -4.999999999999994 M0 -18A18 18 0 1 0 0 18 A18 18 0 1 0 0 -18"
                  fill="#290908"></path>
        </g>
    </g>

</svg>