<svg id="Capa_1" enable-background="new 0 0 512 512" height="512" viewBox="0 0 512 512" width="512"
     xmlns="http://www.w3.org/2000/svg">
    <g>
        <path d="m98.441 241c2.249-44.528 25.232-85.034 62.899-109.307 17.294-11.016 39.375-9.089 54.404 4.321 32.168 29.048 73.711 44.986 117.1 44.986h20.156c5.837 0 11.38 1.201 16.503 3.232l14.493-73.998c3.578-14.383 13.134-24.659 25.424-30.002-11.57-45.403-52.469-80.232-101.42-80.232h-90c-24.413 0-45.917 11.896-59.621 30h-.379c-57.891 0-105 48.109-105 106v120.377c12.572-9.516 28.048-15.377 45-15.377z"/>
        <path d="m98 361v-90c-24.853 0-45 20.147-45 45s20.147 45 45 45z"/>
        <path d="m398 361c24.853 0 45-20.147 45-45s-20.147-45-45-45z"/>
        <circle cx="173" cy="301" r="30"/>
        <path d="m368 226c0-8.291-6.709-15-15-15h-20.156c-50.83 0-99.521-18.677-137.08-52.603-5.068-4.526-12.451-5.127-18.164-1.479-31.055 20.01-49.6 54.097-49.6 91.157v13.661c11.008-12.601 26.999-20.736 45-20.736 22.103 0 41.243 12.153 51.654 30h46.692c10.411-17.847 29.551-30 51.654-30 18.001 0 33.992 8.135 45 20.737z"/>
        <circle cx="323" cy="301" r="30"/>
        <path d="m248 512c66.182 0 120-54.833 120-121v-50.737c-11.008 12.602-26.999 20.737-45 20.737-33.076 0-60-26.909-60-60h-30c0 33.091-26.924 60-60 60-18.001 0-33.992-8.135-45-20.737v50.737c0 67.326 55.172 121 120 121zm-30-136c8.291 0 15 6.709 15 15 0 8.276 6.738 15 15 15s15-6.724 15-15c0-8.291 6.709-15 15-15s15 6.709 15 15c0 24.814-20.186 45-45 45s-45-20.186-45-45c0-8.291 6.709-15 15-15z"/>
        <g>
            <path d="m456.327 181-13.766-64.98c-3.34-13.359-25.781-13.359-29.121 0l-12.767 64.98z"/>
            <path d="m398 211v30c24.626 0 47.32 12.081 61 30.458v-60.458z"/>
        </g>
    </g>
</svg>